<svg width="178" height="27" viewBox="0 0 178 27" fill="none" xmlns="http://www.w3.org/2000/svg">
<path d="M9.144 21C9.016 20.84 8.73867 20.216 8.312 19.128C7.896 18.0293 7.40533 16.792 6.84 15.416C6.28533 14.0293 5.79467 12.9787 5.368 12.264V21H0.072V2.248H5.368V11.224L9.352 2.248H14.68L9.912 11.048C10.2213 11.2613 10.632 11.8427 11.144 12.792C11.656 13.7413 12.136 14.7387 12.584 15.784C13.032 16.8293 13.496 17.88 13.976 18.936C14.456 19.9813 14.808 20.6693 15.032 21H9.144ZM22.4769 19.416C22.9462 19.416 23.3035 19.224 23.5489 18.84C23.8049 18.4453 23.9329 17.9067 23.9329 17.224V12.168C23.9329 10.088 23.4422 9.048 22.4609 9.048C22.0022 9.048 21.6449 9.23467 21.3889 9.608C21.1329 9.98133 21.0049 10.5093 21.0049 11.192V16.392C21.0049 18.408 21.4955 19.416 22.4769 19.416ZM22.3489 21.336C19.9062 21.336 18.1195 20.7813 16.9889 19.672C15.8582 18.5627 15.2929 16.792 15.2929 14.36C15.2929 11.9493 15.8635 10.136 17.0049 8.92C18.1462 7.69333 20.0022 7.08 22.5729 7.08C25.0795 7.08 26.8875 7.66667 27.9969 8.84C29.1169 10.0027 29.6769 11.768 29.6769 14.136C29.6769 16.5893 29.0849 18.4027 27.9009 19.576C26.7275 20.7493 24.8769 21.336 22.3489 21.336ZM31.0679 21C31.0359 20.6373 30.9505 20.168 30.8119 19.592C30.6732 19.0053 30.5399 18.536 30.4119 18.184L36.1079 10.888L37.8999 9.56C37.4199 9.56 36.9825 9.58667 36.5879 9.64C36.2039 9.68267 35.8785 9.736 35.6119 9.8C35.3452 9.864 35.0999 9.96533 34.8759 10.104C34.6519 10.232 34.4812 10.344 34.3639 10.44C34.2465 10.5253 34.1292 10.6587 34.0119 10.84C33.8945 11.0213 33.8145 11.16 33.7719 11.256C33.7399 11.3413 33.6865 11.4853 33.6119 11.688C33.5372 11.8907 33.4892 12.024 33.4679 12.088H31.2599V7.4H41.9639C42.0172 7.76267 42.1079 8.17867 42.2359 8.648C42.3745 9.11733 42.5292 9.56 42.6999 9.976L37.9479 17.016L35.9799 18.472C37.0039 18.472 37.8092 18.4293 38.3959 18.344C39.2812 18.216 39.8572 17.9333 40.1239 17.496C40.2305 17.3253 40.3799 16.8827 40.5719 16.168H42.4439V21H31.0679ZM49.1767 21H43.9927V2.904L43.0327 2.328V0.840001L48.1688 0.04H49.2087V9.464L49.4008 9.224C49.5287 9.05333 49.7154 8.85067 49.9607 8.616C50.2167 8.38133 50.4994 8.152 50.8087 7.928C51.1181 7.69333 51.4861 7.496 51.9127 7.336C52.3501 7.16533 52.7768 7.08 53.1927 7.08C54.6541 7.08 55.6834 7.48 56.2807 8.28C56.8888 9.08 57.1928 10.4187 57.1928 12.296C57.1928 12.36 57.1928 12.456 57.1928 12.584C57.1821 12.712 57.1768 12.8133 57.1768 12.888V21H51.8968V12.424C51.9287 11.4213 51.5021 10.92 50.6168 10.92C50.5314 10.92 50.4461 10.9253 50.3607 10.936C50.2861 10.9467 50.2061 10.9733 50.1208 11.016C50.0354 11.0587 49.9661 11.0907 49.9128 11.112C49.8701 11.1333 49.8007 11.176 49.7047 11.24C49.6194 11.304 49.5608 11.3467 49.5288 11.368C49.5074 11.3893 49.4434 11.4427 49.3367 11.528C49.2408 11.6133 49.1874 11.6613 49.1767 11.672V21ZM65.7299 26.504C64.6312 26.504 63.5965 26.344 62.6259 26.024C61.6552 25.704 60.9459 25.272 60.4979 24.728L61.3299 23C61.9485 23.352 62.9299 23.528 64.2739 23.528C64.7005 23.528 65.0685 23.48 65.3779 23.384C65.6872 23.288 65.9645 23.1173 66.2099 22.872C66.4552 22.6373 66.6419 22.3013 66.7699 21.864C66.8979 21.4267 66.9672 20.888 66.9779 20.248V18.872L66.8179 19.128C66.7112 19.2987 66.5459 19.5067 66.3219 19.752C66.1085 19.9867 65.8632 20.2267 65.5859 20.472C65.3085 20.7067 64.9672 20.9093 64.5619 21.08C64.1672 21.2507 63.7619 21.336 63.3459 21.336C61.7565 21.336 60.6365 20.8933 59.9859 20.008C59.3352 19.112 59.0099 17.608 59.0099 15.496V9.816L58.4339 9.24V7.4H64.2579V16.504C64.2579 16.9947 64.3325 17.3573 64.4819 17.592C64.6419 17.816 64.9565 17.928 65.4259 17.928C65.5645 17.928 65.7032 17.9067 65.8419 17.864C65.9805 17.8107 66.1139 17.7413 66.2419 17.656C66.3805 17.5707 66.5245 17.464 66.6739 17.336V9.816L65.7939 9.24V7.4H71.8899V19.128C71.8899 21.4853 71.3885 23.304 70.3859 24.584C69.3832 25.864 67.8312 26.504 65.7299 26.504ZM82.9733 21L82.3492 18.936C82.2639 19.0853 82.1626 19.2347 82.0453 19.384C81.9386 19.5333 81.7626 19.7253 81.5172 19.96C81.2719 20.184 81.0106 20.3813 80.7333 20.552C80.4559 20.7227 80.1093 20.872 79.6932 21C79.2772 21.128 78.8399 21.192 78.3813 21.192C76.6213 21.192 75.3306 20.5893 74.5092 19.384C73.6879 18.1787 73.2772 16.504 73.2772 14.36C73.2772 13.016 73.4692 11.8213 73.8532 10.776C74.2373 9.72 74.8399 8.872 75.6612 8.232C76.4826 7.592 77.4746 7.272 78.6373 7.272C79.3306 7.272 79.9492 7.34667 80.4932 7.496C81.0372 7.64533 81.5066 7.82667 81.9012 8.04V3.192L80.1413 2.6V0.840001L85.8053 0.04H87.0532V21H82.9733ZM80.7172 18.056C80.9092 18.056 81.1066 18.024 81.3092 17.96C81.5119 17.8853 81.7092 17.784 81.9012 17.656V9.608C81.5706 9.53333 81.2666 9.496 80.9893 9.496C79.5706 9.50667 78.8559 10.6 78.8452 12.776V15.016C78.8452 16.0187 79.0212 16.776 79.3733 17.288C79.7252 17.8 80.1732 18.056 80.7172 18.056ZM89.0407 21V2.904L88.0807 2.328V0.840001L93.2167 0.04H94.2567V21H89.0407ZM102.821 19.416C103.29 19.416 103.647 19.224 103.893 18.84C104.149 18.4453 104.277 17.9067 104.277 17.224V12.168C104.277 10.088 103.786 9.048 102.805 9.048C102.346 9.048 101.989 9.23467 101.733 9.608C101.477 9.98133 101.349 10.5093 101.349 11.192V16.392C101.349 18.408 101.839 19.416 102.821 19.416ZM102.693 21.336C100.25 21.336 98.4633 20.7813 97.3326 19.672C96.202 18.5627 95.6366 16.792 95.6366 14.36C95.6366 11.9493 96.2073 10.136 97.3486 8.92C98.49 7.69333 100.346 7.08 102.917 7.08C105.423 7.08 107.231 7.66667 108.341 8.84C109.461 10.0027 110.021 11.768 110.021 14.136C110.021 16.5893 109.429 18.4027 108.245 19.576C107.071 20.7493 105.221 21.336 102.693 21.336ZM122.074 21H117.258L118.746 2.248H126.249L127.657 8.536L128.297 11.72L128.906 8.552L130.154 2.248H136.841L138.217 21H133.241L132.426 9.976L132.234 5.912L129.786 19.128H125.61L122.666 5.912L122.569 9.976L122.074 21ZM146.707 19.576L146.547 19.752C146.44 19.88 146.275 20.0293 146.051 20.2C145.838 20.3707 145.587 20.5413 145.299 20.712C145.022 20.8827 144.68 21.0267 144.275 21.144C143.87 21.272 143.454 21.336 143.027 21.336C140.147 21.336 138.707 19.912 138.707 17.064C138.707 16.5093 138.808 16.0027 139.011 15.544C139.214 15.0747 139.475 14.68 139.795 14.36C140.115 14.04 140.499 13.7573 140.947 13.512C141.395 13.256 141.843 13.0587 142.291 12.92C142.75 12.7707 143.23 12.648 143.731 12.552C144.232 12.456 144.68 12.392 145.075 12.36C145.47 12.328 145.848 12.312 146.211 12.312V12.024C146.211 11.3733 146.035 10.9147 145.683 10.648C145.342 10.3813 144.787 10.248 144.019 10.248C143.358 10.248 142.67 10.328 141.955 10.488C141.24 10.6373 140.68 10.8187 140.275 11.032L139.251 8.856C139.976 8.38667 140.92 7.976 142.083 7.624C143.246 7.26133 144.43 7.08 145.635 7.08C146.702 7.08 147.582 7.18667 148.275 7.4C148.968 7.60267 149.528 7.95467 149.955 8.456C150.392 8.94667 150.702 9.576 150.883 10.344C151.064 11.1013 151.155 12.0667 151.155 13.24V19.752L151.603 21H147.219L146.707 19.576ZM145.443 18.52C145.582 18.52 145.71 18.4933 145.827 18.44C145.955 18.376 146.051 18.3173 146.115 18.264C146.179 18.2 146.211 18.168 146.211 18.168V14.328C145.56 14.328 145.043 14.5093 144.659 14.872C144.275 15.224 144.083 15.7733 144.083 16.52C144.083 17.8533 144.536 18.52 145.443 18.52ZM158.369 21H153.201V10.648L152.241 10.056V8.248L155.681 7.4H156.977L157.441 11.208C157.878 8.59467 159.281 7.288 161.649 7.288C161.916 7.288 162.193 7.336 162.481 7.432L161.937 13.128C161.713 12.9253 161.222 12.824 160.465 12.824C159.377 12.824 158.678 13.112 158.369 13.688V21ZM171.54 21L169.06 14.456L171.684 7.4H177.684L173.492 13.688L177.78 21H171.54ZM163.524 21V2.904L162.564 2.328V0.840001L167.7 0.04H168.74V21H163.524Z" fill="white"/>
</svg>
